<svg xmlns="http://www.w3.org/2000/svg" viewBox="0 0 64 64" fill="none">
  <defs>
    <linearGradient id="favGrad" x1="0%" y1="0%" x2="100%" y2="100%">
      <stop offset="0%" stopColor="#00BFFF" />
      <stop offset="100%" stopColor="#005A9C" />
    </linearGradient>
    <linearGradient id="accentGrad" x1="0%" y1="100%" x2="100%" y2="0%">
      <stop offset="0%" stopColor="#38BDF8" />
      <stop offset="100%" stopColor="#06B6D4" />
    </linearGradient>
  </defs>
  <rect width="64" height="64" rx="16" fill="url(#favGrad)" />
  <!-- Stylized Tooth & Smile -->
  <path
    d="M20 20 C20 14 26 12 32 12 C38 12 44 14 44 20 C46 26 45 34 42 40 C39 46 37 53 34 53 C32 53 32 46 32 46 C32 46 32 53 30 53 C27 53 25 46 22 40 C19 34 18 26 20 20 Z"
    fill="#FFFFFF"
  />
  <!-- Smile Arc -->
  <path
    d="M24 32 Q32 41 40 32"
    stroke="#005A9C"
    stroke-width="3"
    stroke-linecap="round"
  />
  <!-- Sparkle star -->
  <path
    d="M42 16 L44 12 L46 16 L50 18 L46 20 L44 24 L42 20 L38 18 Z"
    fill="#38BDF8"
  />
</svg>
